M48
T01C0.0150
T02C0.0200
T03C0.0300
T04C0.1574
T05C0.0400
T06C0.1181
T07C0.0450
%
T01
X-079000Y-004700
T02
X-055700Y-023000
X-066780Y-021350
X-049250Y-007000
X-048000Y-007000
X-046750Y-007000
X-042750Y-009250
X-040750Y-009250
X-038500Y-009250
X-034250Y-002000
X-034250Y-006250
X-036250Y-009250
X-090300Y-017650
X-090300Y-016650
X-090300Y-015650
X-090300Y-014650
X-090300Y-013650
X-048550Y-019950
X-047550Y-019950
X-046550Y-019950
T03
X-057650Y-016950
X-057650Y-017950
X-057650Y-018950
X-057650Y-019950
X-054650Y-019950
X-054650Y-018950
X-054650Y-017950
X-054650Y-016950
X-057650Y-012050
X-057650Y-013050
X-057650Y-014050
X-057650Y-015050
X-054650Y-015050
X-054650Y-014050
X-054650Y-013050
X-054650Y-012050
X-057700Y-006800
X-057700Y-007800
X-057700Y-008800
X-057700Y-009800
X-054700Y-009800
X-054700Y-008800
X-054700Y-007800
X-054700Y-006800
X-057700Y-001650
X-057700Y-002650
X-057700Y-003650
X-057700Y-004650
X-054700Y-004650
X-054700Y-003650
X-054700Y-002650
X-054700Y-001650
X-060950Y-005000
X-060950Y-004000
X-059900Y-011500
X-059900Y-010500
X-062450Y-011500
X-062450Y-010500
X-060950Y-016500
X-060950Y-015500
X-069100Y-005050
X-069100Y-006050
X-069100Y-007050
X-069100Y-008050
X-066100Y-008050
X-066100Y-007050
X-066100Y-006050
X-066100Y-005050
X-070900Y-004350
X-070900Y-008350
X-068400Y-002500
X-064400Y-002500
X-070900Y-009650
X-066900Y-009650
X-069600Y-003550
X-065600Y-003550
X-070900Y-002500
X-070900Y-003500
X-071130Y-012930
X-072130Y-012930
X-073130Y-012930
X-074130Y-012930
X-074130Y-015930
X-073130Y-015930
X-072130Y-015930
X-071130Y-015930
X-068986Y-018024
X-064986Y-018024
X-072480Y-016780
X-068480Y-016780
X-069380Y-013630
X-069380Y-015630
X-068030Y-014180
X-064030Y-014180
X-086530Y-013180
X-082530Y-013180
X-082530Y-015680
X-086530Y-015680
X-086530Y-014430
X-082530Y-014430
X-081480Y-015680
X-077480Y-015680
X-081480Y-014430
X-077480Y-014430
X-081480Y-013180
X-077480Y-013180
X-093800Y-010000
X-093800Y-011650
X-091750Y-011600
X-093750Y-003500
X-093750Y-001750
X-037650Y-016650
X-037650Y-022650
X-063050Y-020450
X-059050Y-020450
X-079250Y-020300
X-079250Y-019300
X-079250Y-018300
X-079250Y-017300
X-082250Y-017300
X-082250Y-018300
X-082250Y-019300
X-082250Y-020300
X-083400Y-016450
X-083400Y-020450
X-085850Y-016450
X-085850Y-020450
X-084600Y-016450
X-084600Y-020450
X-073550Y-017300
X-077550Y-017300
X-087950Y-015650
X-088000Y-013250
T04
X-027550Y-019350
T05
X-051100Y-002000
X-051100Y-014000
X-083850Y-005350
X-083850Y-006350
X-083850Y-007350
X-083850Y-008350
X-086850Y-005350
X-086850Y-008350
X-064980Y-012080
X-065980Y-012080
X-066980Y-012080
X-065880Y-016330
X-064980Y-016330
X-066780Y-016330
X-089150Y-010570
X-090150Y-010570
X-090650Y-020150
X-090650Y-022150
X-027700Y-013150
X-027700Y-011150
T06
X-073950Y-022050
X-079000Y-001750
X-026000Y-005000
T07
X-033500Y-022650
X-033500Y-004650
X-030800Y-001050
X-030800Y-019050
M30
