M48
T01C0.0200
T02C0.0150
T03C0.0400
T04C0.0300
T05C0.1574
T06C0.1181
T07C0.0500
T08C0.0450
T09C0.0320
%
T01
X-069300Y-022750
T02
X-079000Y-004700
T03
X-021330Y-003010
X-012480Y-003010
X-021320Y-005980
X-012470Y-005980
X-021320Y-008980
X-012470Y-008980
X-021320Y-011980
X-012470Y-011980
X-021320Y-014980
X-012470Y-014980
X-021320Y-017980
X-012470Y-017980
X-021320Y-021030
X-012470Y-021030
X-002550Y-005580
X-006500Y-005580
X-002540Y-017410
X-006490Y-017410
X-051100Y-002000
X-051100Y-014000
X-083850Y-005350
X-083850Y-006350
X-083850Y-007350
X-083850Y-008350
X-086850Y-005350
X-086850Y-008350
X-070250Y-012000
X-071250Y-012000
X-072250Y-012000
X-067750Y-013750
X-066750Y-013750
X-065750Y-013750
X-071150Y-016250
X-070250Y-016250
X-072050Y-016250
X-093600Y-016050
X-093600Y-017050
X-090700Y-019150
X-090700Y-021150
X-077500Y-018000
X-077500Y-022000
X-084500Y-018000
X-084500Y-022000
T04
X-057650Y-016950
X-057650Y-017950
X-057650Y-018950
X-057650Y-019950
X-054650Y-019950
X-054650Y-018950
X-054650Y-017950
X-054650Y-016950
X-057650Y-012050
X-057650Y-013050
X-057650Y-014050
X-057650Y-015050
X-054650Y-015050
X-054650Y-014050
X-054650Y-013050
X-054650Y-012050
X-057700Y-006800
X-057700Y-007800
X-057700Y-008800
X-057700Y-009800
X-054700Y-009800
X-054700Y-008800
X-054700Y-007800
X-054700Y-006800
X-057700Y-001650
X-057700Y-002650
X-057700Y-003650
X-057700Y-004650
X-054700Y-004650
X-054700Y-003650
X-054700Y-002650
X-054700Y-001650
X-060950Y-005000
X-060950Y-004000
X-059900Y-011500
X-059900Y-010500
X-062450Y-011500
X-062450Y-010500
X-060950Y-016500
X-060950Y-015500
X-069100Y-005050
X-069100Y-006050
X-069100Y-007050
X-069100Y-008050
X-066100Y-008050
X-066100Y-007050
X-066100Y-006050
X-066100Y-005050
X-070900Y-004350
X-070900Y-008350
X-068400Y-002500
X-064400Y-002500
X-070900Y-009650
X-066900Y-009650
X-069600Y-003550
X-065600Y-003550
X-070900Y-002500
X-070900Y-003500
X-076400Y-012850
X-077400Y-012850
X-078400Y-012850
X-079400Y-012850
X-079400Y-015850
X-078400Y-015850
X-077400Y-015850
X-076400Y-015850
X-064500Y-011750
X-068500Y-011750
X-068450Y-016700
X-064450Y-016700
X-068500Y-015500
X-064500Y-015500
X-074256Y-017944
X-070256Y-017944
X-077750Y-016700
X-073750Y-016700
X-074650Y-013550
X-074650Y-015550
X-073300Y-014100
X-069300Y-014100
X-091800Y-013100
X-087800Y-013100
X-087800Y-015600
X-091800Y-015600
X-091800Y-014350
X-087800Y-014350
X-086750Y-015600
X-082750Y-015600
X-086750Y-014350
X-082750Y-014350
X-086750Y-013100
X-082750Y-013100
X-059500Y-022750
X-056500Y-022750
X-059250Y-021250
X-056250Y-021250
X-052750Y-022750
X-055750Y-022750
X-093650Y-011050
X-093600Y-012850
X-093600Y-014600
X-093750Y-003500
X-093750Y-001750
T05
X-027550Y-004350
X-037800Y-019350
T06
X-028200Y-011150
X-028200Y-021150
X-073950Y-022050
X-079000Y-001750
T07
X-043000Y-009000
X-040350Y-009000
X-037650Y-009000
X-034600Y-001500
X-034600Y-004150
T08
X-010150Y-003100
X-010150Y-021100
T09
X-087800Y-019150
X-087406Y-021118
M30
